<?xml version="1.0" standalone="no"?>
<!DOCTYPE svg PUBLIC "-//W3C//DTD SVG 20010904//EN" "http://www.w3.org/TR/2001/REC-SVG-20010904/DTD/svg10.dtd">
<svg version="1.0" xmlns="http://www.w3.org/2000/svg" width="1000.000000pt" height="1000.000000pt"
  viewBox="0 0 1000.000000 1000.000000" preserveAspectRatio="xMidYMid meet">

  <g transform="translate(0.000000,1000.000000) scale(0.100000,-0.100000)" fill="#dce2ea" stroke="none">
    <path d="M4790 7994 c-659 -58 -1235 -293 -1718 -699 -111 -94 -320 -306 -403
-410 -298 -370 -505 -804 -603 -1265 -48 -226 -61 -357 -61 -625 0 -268 13
-399 61 -625 103 -482 322 -931 639 -1308 94 -111 306 -320 410 -403 437 -351
938 -565 1510 -646 182 -25 578 -25 760 0 484 68 896 222 1285 482 168 112
270 195 424 345 499 486 794 1072 893 1775 13 97 18 193 18 380 0 268 -13 399
-61 625 -98 461 -305 895 -603 1265 -83 104 -292 316 -403 410 -433 364 -945
592 -1518 676 -130 19 -515 33 -630 23z m1120 -1052 c173 -47 291 -113 399
-222 119 -121 173 -245 174 -400 0 -145 -46 -259 -181 -450 -80 -113 -307
-346 -445 -455 -62 -49 -97 -84 -95 -94 2 -10 36 -27 88 -46 153 -56 253 -118
369 -229 177 -171 251 -338 251 -568 0 -281 -129 -521 -438 -820 -258 -249
-556 -437 -842 -532 -348 -116 -752 -121 -896 -11 -40 31 -48 57 -41 134 11
123 85 197 240 238 49 13 102 17 252 15 220 -1 291 10 431 67 337 138 657 405
777 646 46 92 59 142 58 234 0 140 -55 257 -173 366 -103 95 -232 149 -394
164 -107 10 -150 0 -313 -68 -187 -78 -210 -84 -319 -79 -158 6 -203 42 -218
171 -6 55 -5 60 22 88 43 45 147 103 317 176 337 145 499 250 734 477 234 225
325 374 325 527 0 160 -113 269 -316 306 -313 57 -1138 -96 -1244 -232 -31
-39 -89 -372 -211 -1195 -143 -968 -162 -1142 -160 -1455 1 -210 -1 -260 -15
-310 -37 -130 -113 -190 -240 -189 -133 0 -222 78 -262 229 -22 82 -17 171 20
332 98 425 195 1011 285 1738 58 464 62 555 28 621 -22 42 -55 54 -151 54 -73
0 -86 3 -109 24 -31 29 -52 70 -61 120 -11 57 30 133 102 191 221 177 913 380
1499 440 213 21 246 23 473 20 169 -2 218 -6 280 -23z" />
  </g>
</svg>